HIERARCHY
ROOT Hips
{
	OFFSET 0.000000 71.427986 0.000000
	CHANNELS 6 Xposition Yposition Zposition Xrotation Yrotation Zrotation
	JOINT Pelvis
	{
		OFFSET 0.000000 0.000000 0.000000
		CHANNELS 3 Xrotation Yrotation Zrotation
		JOINT LeftUpLeg
		{
			OFFSET 6.797100 -2.508499 -1.318700
			CHANNELS 3 Xrotation Yrotation Zrotation
			JOINT LeftLeg
			{
				OFFSET 0.069008 -29.241863 0.690200
				CHANNELS 3 Xrotation Yrotation Zrotation
				JOINT LeftFoot
				{
					OFFSET -0.069008 -29.568123 -0.266800
					CHANNELS 3 Xrotation Yrotation Zrotation
					JOINT LeftToeBase
					{
						OFFSET 3.145500 -8.631000 16.059900
						CHANNELS 3 Xrotation Yrotation Zrotation
						End Site
						{
							OFFSET 0.000000 18.501587 0.000000
						}
					}
				}
			}
			JOINT Left_ShortSleeve
			{
				OFFSET 0.265923 -10.480953 1.153800
				CHANNELS 3 Xrotation Yrotation Zrotation
				End Site
				{
					OFFSET 1.725763 19.823879 0.000000
				}
			}
		}
		JOINT RightUpLeg
		{
			OFFSET -6.797100 -2.508499 -1.318700
			CHANNELS 3 Xrotation Yrotation Zrotation
			JOINT RightLeg
			{
				OFFSET -0.082453 -29.241932 0.688000
				CHANNELS 3 Xrotation Yrotation Zrotation
				JOINT RightFoot
				{
					OFFSET 0.082453 -29.568058 -0.264600
					CHANNELS 3 Xrotation Yrotation Zrotation
					JOINT RightToeBase
					{
						OFFSET -3.115300 -8.682800 16.113400
						CHANNELS 3 Xrotation Yrotation Zrotation
						End Site
						{
							OFFSET 0.000000 18.567114 0.000000
						}
					}
				}
			}
			JOINT Right_ShortSleeve
			{
				OFFSET -0.265923 -10.480953 1.153800
				CHANNELS 3 Xrotation Yrotation Zrotation
				End Site
				{
					OFFSET -1.725766 19.823910 0.000000
				}
			}
		}
	}
	JOINT Spine
	{
		OFFSET 0.000000 13.368103 0.470500
		CHANNELS 3 Xrotation Yrotation Zrotation
		JOINT Spine1
		{
			OFFSET 0.147000 13.837402 0.538800
			CHANNELS 3 Xrotation Yrotation Zrotation
			JOINT Spine2
			{
				OFFSET 0.168000 16.242897 -1.435500
				CHANNELS 3 Xrotation Yrotation Zrotation
				JOINT Neck
				{
					OFFSET 0.217200 18.631500 -1.679100
					CHANNELS 3 Xrotation Yrotation Zrotation
					JOINT Head
					{
						OFFSET 0.000000 6.599396 1.385900
						CHANNELS 3 Xrotation Yrotation Zrotation
						JOINT Hat
						{
							OFFSET -0.532200 27.220596 -10.096100
							CHANNELS 3 Xrotation Yrotation Zrotation
							End Site
							{
								OFFSET 0.000000 22.029861 0.000000
							}
						}
						JOINT HairD
						{
							OFFSET -10.777400 17.437393 -1.325900
							CHANNELS 3 Xrotation Yrotation Zrotation
							JOINT HairD1
							{
								OFFSET -3.290299 -11.051193 1.062200
								CHANNELS 3 Xrotation Yrotation Zrotation
								End Site
								{
									OFFSET 0.000000 11.579437 0.000000
								}
							}
						}
						JOINT HairB
						{
							OFFSET -10.777400 17.437393 1.467900
							CHANNELS 3 Xrotation Yrotation Zrotation
							JOINT HairB1
							{
								OFFSET -1.561200 -12.956299 3.590200
								CHANNELS 3 Xrotation Yrotation Zrotation
								End Site
								{
									OFFSET 0.000000 13.534866 0.000000
								}
							}
						}
						JOINT HairA
						{
							OFFSET 9.713100 17.437393 1.467900
							CHANNELS 3 Xrotation Yrotation Zrotation
							JOINT HairA1
							{
								OFFSET 1.561200 -12.956299 3.590200
								CHANNELS 3 Xrotation Yrotation Zrotation
								End Site
								{
									OFFSET 0.000000 13.534866 0.000000
								}
							}
						}
						JOINT HairC
						{
							OFFSET 9.713100 17.437393 -1.325900
							CHANNELS 3 Xrotation Yrotation Zrotation
							JOINT HairC1
							{
								OFFSET 3.290300 -11.051193 1.062200
								CHANNELS 3 Xrotation Yrotation Zrotation
								End Site
								{
									OFFSET 0.000000 11.579437 0.000000
								}
							}
						}
					}
				}
				JOINT LeftShoulder
				{
					OFFSET 5.101800 15.108002 -2.763700
					CHANNELS 3 Xrotation Yrotation Zrotation
					JOINT LeftArm
					{
						OFFSET 9.825497 2.506317 -1.597400
						CHANNELS 3 Xrotation Yrotation Zrotation
						JOINT LeftForeArm
						{
							OFFSET 21.966244 0.000000 0.000000
							CHANNELS 3 Xrotation Yrotation Zrotation
							JOINT LeftHand
							{
								OFFSET 33.879036 0.000000 0.000000
								CHANNELS 3 Xrotation Yrotation Zrotation
								JOINT LeftHandThumb1
								{
									OFFSET 6.715286 -2.359680 3.363841
									CHANNELS 3 Xrotation Yrotation Zrotation
									JOINT LeftHandThumb2
									{
										OFFSET 2.507072 -1.447464 1.447461
										CHANNELS 3 Xrotation Yrotation Zrotation
										JOINT LeftHandThumb3
										{
											OFFSET 2.898338 -1.673355 1.673357
											CHANNELS 3 Xrotation Yrotation Zrotation
											End Site
											{
												OFFSET -0.295959 3.727692 -0.131651
											}
										}
									}
								}
								JOINT LeftHandIndex1
								{
									OFFSET 14.190811 -0.254547 3.840278
									CHANNELS 3 Xrotation Yrotation Zrotation
									JOINT LeftHandIndex2
									{
										OFFSET 3.551727 0.000000 -0.000000
										CHANNELS 3 Xrotation Yrotation Zrotation
										JOINT LeftHandIndex3
										{
											OFFSET 2.894196 0.000000 0.000000
											CHANNELS 3 Xrotation Yrotation Zrotation
											End Site
											{
												OFFSET -1.000603 2.690872 0.366626
											}
										}
									}
								}
								JOINT LeftHandMiddle1
								{
									OFFSET 13.776489 0.000000 0.000000
									CHANNELS 3 Xrotation Yrotation Zrotation
									JOINT LeftHandMiddle2
									{
										OFFSET 3.438232 0.000000 0.000000
										CHANNELS 3 Xrotation Yrotation Zrotation
										JOINT LeftHandMiddle3
										{
											OFFSET 3.691551 0.000000 0.000000
											CHANNELS 3 Xrotation Yrotation Zrotation
											End Site
											{
												OFFSET -1.082298 3.499527 0.457670
											}
										}
									}
								}
								JOINT LeftHandRing1
								{
									OFFSET 13.966164 -0.268127 -3.067488
									CHANNELS 3 Xrotation Yrotation Zrotation
									JOINT LeftHandRing2
									{
										OFFSET 3.162567 0.000000 0.000000
										CHANNELS 3 Xrotation Yrotation Zrotation
										JOINT LeftHandRing3
										{
											OFFSET 3.324348 0.000000 0.000000
											CHANNELS 3 Xrotation Yrotation Zrotation
											End Site
											{
												OFFSET -0.861900 3.184998 0.405154
											}
										}
									}
								}
								JOINT LeftHandPinky1
								{
									OFFSET 13.131393 -0.168503 -5.746925
									CHANNELS 3 Xrotation Yrotation Zrotation
									JOINT LeftHandPinky2
									{
										OFFSET 2.849182 0.000000 0.000000
										CHANNELS 3 Xrotation Yrotation Zrotation
										JOINT LeftHandPinky3
										{
											OFFSET 2.805038 0.000000 0.000000
											CHANNELS 3 Xrotation Yrotation Zrotation
											End Site
											{
												OFFSET -0.882500 2.642609 0.325652
											}
										}
									}
								}
							}
							JOINT Left_Sleeve
							{
								OFFSET 6.592125 -0.646545 0.805568
								CHANNELS 3 Xrotation Yrotation Zrotation
								End Site
								{
									OFFSET -0.000179 20.275787 -0.000000
								}
							}
						}
					}
				}
				JOINT RightShoulder
				{
					OFFSET -5.731700 15.108002 -2.763700
					CHANNELS 3 Xrotation Yrotation Zrotation
					JOINT RightArm
					{
						OFFSET -9.825497 2.506317 -1.597400
						CHANNELS 3 Xrotation Yrotation Zrotation
						JOINT RightForeArm
						{
							OFFSET -21.966242 0.000000 0.000000
							CHANNELS 3 Xrotation Yrotation Zrotation
							JOINT RightHand
							{
								OFFSET -33.879032 0.000000 0.000000
								CHANNELS 3 Xrotation Yrotation Zrotation
								JOINT RightHandThumb1
								{
									OFFSET -6.715286 -2.359680 3.363841
									CHANNELS 3 Xrotation Yrotation Zrotation
									JOINT RightHandThumb2
									{
										OFFSET -2.507072 -1.447464 1.447461
										CHANNELS 3 Xrotation Yrotation Zrotation
										JOINT RightHandThumb3
										{
											OFFSET -2.898338 -1.673355 1.673357
											CHANNELS 3 Xrotation Yrotation Zrotation
											End Site
											{
												OFFSET 0.295959 3.727692 -0.131651
											}
										}
									}
								}
								JOINT RightHandIndex1
								{
									OFFSET -14.190811 -0.254547 3.840278
									CHANNELS 3 Xrotation Yrotation Zrotation
									JOINT RightHandIndex2
									{
										OFFSET -3.551727 0.000000 -0.000000
										CHANNELS 3 Xrotation Yrotation Zrotation
										JOINT RightHandIndex3
										{
											OFFSET -2.894196 0.000000 0.000000
											CHANNELS 3 Xrotation Yrotation Zrotation
											End Site
											{
												OFFSET 1.000603 2.690872 0.366626
											}
										}
									}
								}
								JOINT RightHandMiddle1
								{
									OFFSET -13.776489 0.000000 0.000000
									CHANNELS 3 Xrotation Yrotation Zrotation
									JOINT RightHandMiddle2
									{
										OFFSET -3.438232 0.000000 0.000000
										CHANNELS 3 Xrotation Yrotation Zrotation
										JOINT RightHandMiddle3
										{
											OFFSET -3.691551 0.000000 0.000000
											CHANNELS 3 Xrotation Yrotation Zrotation
											End Site
											{
												OFFSET 1.082298 3.499527 0.457670
											}
										}
									}
								}
								JOINT RightHandRing1
								{
									OFFSET -13.966164 -0.268127 -3.067488
									CHANNELS 3 Xrotation Yrotation Zrotation
									JOINT RightHandRing2
									{
										OFFSET -3.162567 0.000000 0.000000
										CHANNELS 3 Xrotation Yrotation Zrotation
										JOINT RightHandRing3
										{
											OFFSET -3.324348 0.000000 0.000000
											CHANNELS 3 Xrotation Yrotation Zrotation
											End Site
											{
												OFFSET 0.861900 3.184998 0.405154
											}
										}
									}
								}
								JOINT RightHandPinky1
								{
									OFFSET -13.131393 -0.168503 -5.746925
									CHANNELS 3 Xrotation Yrotation Zrotation
									JOINT RightHandPinky2
									{
										OFFSET -2.849182 0.000000 0.000000
										CHANNELS 3 Xrotation Yrotation Zrotation
										JOINT RightHandPinky3
										{
											OFFSET -2.805038 0.000000 0.000000
											CHANNELS 3 Xrotation Yrotation Zrotation
											End Site
											{
												OFFSET 0.882500 2.642609 0.325652
											}
										}
									}
								}
							}
							JOINT Right_Sleeve
							{
								OFFSET -6.592125 -0.646545 0.805568
								CHANNELS 3 Xrotation Yrotation Zrotation
								End Site
								{
									OFFSET 0.000179 20.275787 -0.000000
								}
							}
						}
					}
				}
				JOINT Bind_Right_JacketString
				{
					OFFSET -3.534800 11.969597 7.200700
					CHANNELS 3 Xrotation Yrotation Zrotation
					JOINT Bind_Right_JacketString1
					{
						OFFSET -0.319900 -6.102600 2.794100
						CHANNELS 3 Xrotation Yrotation Zrotation
						End Site
						{
							OFFSET 0.000000 6.719452 0.000000
						}
					}
				}
				JOINT Bind_Left_JacketString
				{
					OFFSET 2.904800 11.969597 7.200700
					CHANNELS 3 Xrotation Yrotation Zrotation
					JOINT Bind_Left_JacketString1
					{
						OFFSET 0.364800 -5.904503 3.186800
						CHANNELS 3 Xrotation Yrotation Zrotation
						End Site
						{
							OFFSET 0.000000 6.719513 0.000000
						}
					}
				}
				JOINT HairE
				{
					OFFSET 5.915200 17.612701 -11.592200
					CHANNELS 3 Xrotation Yrotation Zrotation
					JOINT HairE1
					{
						OFFSET 0.289200 -7.171898 -1.284500
						CHANNELS 3 Xrotation Yrotation Zrotation
						End Site
						{
							OFFSET 0.000000 7.291756 0.000000
						}
					}
				}
				JOINT HairF
				{
					OFFSET -0.864800 17.612701 -11.592200
					CHANNELS 3 Xrotation Yrotation Zrotation
					JOINT HairF1
					{
						OFFSET 0.000000 -14.087097 -2.127501
						CHANNELS 3 Xrotation Yrotation Zrotation
						End Site
						{
							OFFSET 0.000000 14.246841 0.000000
						}
					}
				}
				JOINT HairG
				{
					OFFSET -8.087700 17.612701 -11.592200
					CHANNELS 3 Xrotation Yrotation Zrotation
					JOINT HairG1
					{
						OFFSET -0.293600 -6.081398 -0.910100
						CHANNELS 3 Xrotation Yrotation Zrotation
						End Site
						{
							OFFSET 0.000000 6.156120 0.000000
						}
					}
				}
			}
		}
	}
	JOINT Pouch
	{
		OFFSET 0.000000 4.394501 10.847300
		CHANNELS 3 Xrotation Yrotation Zrotation
		End Site
		{
			OFFSET 0.000000 21.880577 0.000000
		}
	}
	JOINT Bag
	{
		OFFSET -13.229000 4.813004 -0.593300
		CHANNELS 3 Xrotation Yrotation Zrotation
		End Site
		{
			OFFSET 0.000000 21.880577 0.000000
		}
	}
	JOINT OccupyGuyFacialAnim_Joint
	{
		OFFSET 1.000000 -70.206398 -1.655000
		CHANNELS 3 Xrotation Yrotation Zrotation
		End Site
		{
			OFFSET 0.000000 21.880577 0.000000
		}
	}
}
MOTION
Frames: 4
Frame Time: 0.033333
-0.459068 50.953293 32.765854 16.839661 -61.802803 9.194968 -0.000000 0.000002 0.000001 -57.105781 4.609389 60.224107 65.797719 -2.760820 7.437673 -7.141005 3.805348 -29.389454 0.000000 0.000000 0.000000 0.000001 0.000002 -0.000001 -32.679180 14.439964 -31.181292 50.092307 9.630528 -9.941795 -38.406085 7.022233 27.612196 -0.000000 0.000000 0.000000 -0.000000 0.000001 -0.000000 4.679934 -14.509832 -7.182885 1.013541 -2.427071 -5.690466 0.838174 -2.641535 -5.688080 0.390136 9.245913 13.766841 -29.308089 50.567770 11.142111 -0.000000 0.000000 -0.000000 -0.000000 0.000000 -0.000000 -0.000000 0.000000 -0.000000 -0.000000 0.000000 -0.000000 0.000000 0.000000 -0.000000 -0.000000 0.000000 -0.000000 0.000000 0.000000 -0.000000 -0.000000 0.000000 -0.000000 -0.000000 0.000000 -0.000000 5.742501 -28.738912 3.797665 -28.255094 -30.001637 0.981960 -0.000478 -99.103927 -0.000508 -113.176002 -1.880761 37.817060 47.237657 -14.298081 -20.338316 5.003269 31.303986 14.873519 0.000000 -0.000000 -0.000001 2.625101 5.412081 -51.725467 6.677586 6.878185 -88.300617 0.000001 0.000001 -0.000000 1.770437 4.613849 -41.968360 5.642790 6.769356 -79.607788 0.000002 -0.000002 0.000004 1.771724 4.615244 -41.984435 5.640900 6.769040 -79.591559 -0.000000 0.000001 -0.000002 5.826299 7.927920 -51.587049 6.680593 2.792077 -88.335964 -0.000001 -0.000001 0.000001 0.000003 -0.000001 -0.000000 1.855279 13.407488 2.639891 -1.358456 -1.840487 33.220548 -0.000406 87.298656 0.000378 10.126062 19.458149 -16.455474 33.436942 5.626285 32.261579 12.087212 -53.454877 -16.493966 0.000003 -0.000001 0.000001 4.678808 -6.568890 70.892774 6.209523 -6.909020 83.882229 -0.000004 -0.000001 -0.000003 3.223019 -5.869363 57.515165 5.617401 -6.820191 78.931141 0.000001 0.000001 -0.000001 3.223013 -5.869319 57.515172 5.617409 -6.820198 78.931176 -0.000002 -0.000002 0.000001 4.678801 -6.568889 70.892781 6.209556 -6.909041 83.882236 0.000000 0.000001 0.000002 -0.000000 0.000001 0.000001 -0.000000 -0.000000 0.000001 -0.000000 -0.000000 0.000000 -0.000000 -0.000000 0.000001 -0.000000 -0.000000 0.000001 -0.000000 -0.000000 0.000001 -0.000000 -0.000000 0.000001 -0.000000 -0.000000 0.000001 -0.000000 -0.000000 0.000001 -0.000000 -0.000000 0.000001 -0.000000 -0.000000 0.000001 -0.000000 0.000002 0.000001 -0.000000 0.000002 0.000001 -0.000000 0.000002 0.000001 
-1.160470 52.095398 30.764229 13.565207 -60.172170 8.384894 -0.000000 0.000000 -0.000000 -50.577445 5.794252 55.225232 57.478091 0.157685 7.073803 -3.209036 2.152909 -29.210547 -0.000000 -0.000000 -0.000000 0.000002 -0.000003 0.000001 -31.335801 14.592925 -31.904729 51.149842 9.558852 -9.957017 -38.337773 6.905908 27.646150 0.000001 -0.000004 -0.000001 -0.000003 0.000000 0.000003 5.613677 -11.164407 -4.778814 1.445177 -1.901822 -4.114123 1.341405 -2.076737 -4.117113 0.301512 8.247437 11.786702 -22.347363 48.423521 2.449764 0.000000 0.000001 0.000000 0.000000 0.000001 0.000000 0.000000 0.000001 0.000000 0.000000 0.000001 0.000000 -0.000000 0.000003 0.000000 0.000000 0.000001 0.000000 -0.000000 0.000003 0.000000 0.000000 0.000001 0.000000 0.000000 0.000001 0.000000 5.278083 -26.267256 1.997437 -32.330233 -23.123136 -5.555778 0.000079 -104.227157 0.000083 -109.878483 -4.443543 36.973310 47.237657 -14.298079 -20.338316 5.003273 31.303990 14.873516 0.000000 -0.000000 -0.000000 2.625104 5.412083 -51.725470 6.677588 6.878181 -88.300610 -0.000003 -0.000001 0.000003 1.770435 4.613851 -41.968357 5.642792 6.769355 -79.607781 0.000003 0.000002 0.000001 1.771723 4.615245 -41.984435 5.640901 6.769041 -79.591559 -0.000001 0.000001 -0.000004 5.826301 7.927921 -51.587046 6.680593 2.792068 -88.335964 -0.000000 0.000000 -0.000001 -0.000000 0.000002 -0.000002 1.970064 14.235523 1.937107 -4.858400 1.473208 19.791790 0.000070 87.411224 -0.000079 7.170593 18.611693 -15.005576 33.436935 5.626285 32.261586 12.087214 -53.454881 -16.493971 -0.000001 0.000000 0.000002 4.678807 -6.568890 70.892774 6.209527 -6.909013 83.882223 -0.000001 -0.000002 -0.000000 3.223018 -5.869362 57.515165 5.617404 -6.820188 78.931141 0.000001 -0.000002 0.000001 3.223011 -5.869319 57.515158 5.617413 -6.820201 78.931169 -0.000003 0.000002 -0.000004 4.678800 -6.568885 70.892781 6.209556 -6.909042 83.882236 0.000000 0.000002 0.000001 -0.000000 0.000000 0.000001 -0.000001 -0.000001 0.000003 -0.000001 0.000000 0.000003 -0.000001 -0.000001 0.000001 -0.000001 -0.000001 0.000001 -0.000001 -0.000001 0.000003 -0.000001 0.000000 0.000003 -0.000001 -0.000001 0.000001 -0.000001 -0.000001 0.000001 -0.000001 -0.000001 0.000003 -0.000001 0.000000 0.000003 -0.000000 0.000000 -0.000000 -0.000000 0.000000 -0.000000 -0.000000 0.000000 -0.000000 
-1.894181 53.379173 28.662605 10.232014 -57.319077 7.380713 -0.000000 0.000001 -0.000000 -46.194198 7.077220 50.817526 50.563272 -2.450762 6.426334 -0.070721 3.063195 -29.259567 0.000000 0.000000 -0.000000 0.000000 0.000002 0.000000 -29.356044 13.484889 -32.834516 51.877527 9.522253 -9.948698 -38.108542 6.288127 27.597323 0.000000 0.000002 0.000001 -0.000003 0.000001 -0.000002 6.340935 -7.582361 -2.725092 1.786880 -1.312794 -2.378795 1.744588 -1.421184 -2.386022 0.744356 6.926050 9.726616 -15.738407 44.393573 -5.876723 -0.000000 0.000001 -0.000000 -0.000000 0.000001 -0.000000 -0.000000 0.000001 -0.000000 -0.000000 0.000001 -0.000000 -0.000000 0.000002 -0.000000 -0.000000 0.000001 -0.000000 -0.000000 0.000002 -0.000000 -0.000000 0.000001 -0.000000 -0.000000 0.000001 -0.000000 5.028215 -24.775690 0.338539 -33.856363 -17.177907 -12.852855 0.000122 -106.986157 0.000135 -106.751561 -6.377443 36.118901 47.237663 -14.298076 -20.338314 5.003270 31.303990 14.873519 0.000001 -0.000000 0.000000 2.625103 5.412081 -51.725470 6.677584 6.878181 -88.300610 0.000002 -0.000001 -0.000002 1.770439 4.613849 -41.968353 5.642791 6.769360 -79.607781 0.000002 0.000001 -0.000003 1.771724 4.615245 -41.984435 5.640906 6.769044 -79.591552 -0.000001 -0.000002 -0.000001 5.826302 7.927922 -51.587053 6.680589 2.792067 -88.335970 -0.000000 0.000005 -0.000002 0.000000 0.000001 -0.000000 1.979139 14.070174 1.659635 -5.763640 6.265034 6.908062 0.000218 85.595418 -0.000197 3.951114 18.507690 -13.041462 33.436938 5.626284 32.261582 12.087224 -53.454874 -16.493980 -0.000004 -0.000001 0.000002 4.678808 -6.568895 70.892774 6.209525 -6.909016 83.882229 -0.000000 0.000004 0.000003 3.223020 -5.869362 57.515165 5.617401 -6.820190 78.931135 0.000006 0.000000 -0.000002 3.223013 -5.869319 57.515165 5.617414 -6.820200 78.931169 0.000001 -0.000002 0.000001 4.678801 -6.568892 70.892774 6.209553 -6.909042 83.882236 -0.000002 0.000002 0.000004 -0.000000 0.000002 -0.000000 0.000000 0.000001 -0.000000 0.000001 0.000001 -0.000001 0.000000 0.000001 -0.000001 0.000000 0.000001 -0.000001 0.000000 0.000001 -0.000000 0.000001 0.000001 -0.000000 0.000000 0.000001 -0.000001 0.000000 0.000001 -0.000001 0.000000 0.000001 -0.000000 0.000001 0.000001 -0.000000 -0.000000 0.000001 -0.000000 -0.000000 0.000001 -0.000000 -0.000000 0.000001 -0.000000 
-2.610109 54.779663 26.407475 7.588922 -53.031679 6.836994 0.000000 0.000000 -0.000000 -43.764181 6.192789 46.180661 47.877003 -8.360027 5.867681 6.269583 8.204881 -28.889306 0.000000 -0.000000 -0.000000 0.000001 0.000003 -0.000000 -27.605267 11.167177 -33.696322 52.425971 9.547894 -9.930224 -37.320020 4.962014 27.517622 -0.000000 -0.000001 0.000001 -0.000000 -0.000004 -0.000000 6.891243 -4.724286 -1.360322 1.998341 -0.823116 -0.965906 1.994075 -0.863019 -0.975827 1.378622 5.544493 8.121355 -11.294370 39.372250 -11.753719 -0.000000 -0.000001 -0.000000 -0.000000 -0.000001 -0.000000 -0.000000 -0.000001 -0.000000 -0.000000 -0.000001 0.000000 -0.000000 -0.000001 0.000000 -0.000000 -0.000001 0.000000 -0.000000 -0.000001 0.000000 -0.000000 -0.000001 -0.000000 -0.000000 -0.000001 -0.000000 4.957403 -24.241552 -0.975437 -34.014622 -12.335498 -19.461152 0.000054 -108.160342 0.000052 -103.882697 -7.260372 35.223870 47.237660 -14.298075 -20.338314 5.003270 31.303990 14.873521 0.000000 0.000001 -0.000001 2.625099 5.412083 -51.725470 6.677585 6.878181 -88.300617 0.000001 0.000005 0.000002 1.770439 4.613848 -41.968360 5.642789 6.769360 -79.607781 0.000002 -0.000001 0.000001 1.771721 4.615246 -41.984432 5.640903 6.769041 -79.591552 -0.000004 -0.000001 -0.000004 5.826297 7.927922 -51.587049 6.680596 2.792071 -88.335964 -0.000000 -0.000002 0.000001 0.000002 0.000002 -0.000003 1.942780 13.461456 1.631077 -4.252069 11.219077 -2.473254 -0.000061 82.537625 0.000068 1.407721 19.010853 -10.948838 33.436945 5.626285 32.261582 12.087211 -53.454877 -16.493963 -0.000001 -0.000001 -0.000000 4.678808 -6.568894 70.892774 6.209526 -6.909013 83.882229 0.000000 0.000001 -0.000001 3.223019 -5.869361 57.515172 5.617405 -6.820190 78.931135 0.000001 0.000001 0.000003 3.223012 -5.869316 57.515165 5.617412 -6.820202 78.931162 -0.000000 0.000001 0.000001 4.678801 -6.568885 70.892774 6.209550 -6.909042 83.882229 -0.000002 0.000001 -0.000001 -0.000001 0.000000 -0.000000 -0.000001 -0.000004 0.000001 -0.000000 -0.000002 0.000001 -0.000001 -0.000004 0.000001 -0.000001 -0.000004 0.000001 -0.000001 -0.000004 0.000001 -0.000000 -0.000002 0.000001 -0.000001 -0.000004 0.000001 -0.000001 -0.000004 0.000001 -0.000001 -0.000004 0.000001 -0.000000 -0.000002 0.000001 0.000000 0.000000 -0.000000 0.000000 0.000000 -0.000000 0.000000 0.000000 -0.000000 
